<svg xmlns="http://www.w3.org/2000/svg" xmlns:xlink="http://www.w3.org/1999/xlink" version="1.1" x="0px" y="0px" viewBox="0 0 100 125" enable-background="new 0 0 100 100" xml:space="preserve"><path d="M98.3,54.3v-8.7c0-1.8-1.4-3.2-3.2-3.2h-7.2c-1-5.1-3-9.8-5.8-14l5.1-5.1c1.2-1.2,1.2-3.3,0-4.5l-6.1-6.1  c-1.2-1.2-3.3-1.2-4.5,0l-5.1,5.1c-4.2-2.8-8.9-4.8-14-5.8V4.8c0-1.8-1.4-3.2-3.2-3.2h-8.7c-1.8,0-3.2,1.4-3.2,3.2v7.2  c-5.1,1-9.8,3-14,5.8l-5.1-5.1c-1.2-1.2-3.3-1.2-4.5,0l-6.1,6.1c-1.2,1.2-1.2,3.3,0,4.5l5.1,5.1c-2.8,4.2-4.8,8.9-5.8,14H4.8  c-1.8,0-3.2,1.4-3.2,3.2v8.7c0,1.8,1.4,3.2,3.2,3.2h7.2c1,5.1,3,9.8,5.8,14l-5.1,5.1c-1.2,1.2-1.2,3.3,0,4.5l6.1,6.1  c1.2,1.2,3.3,1.2,4.5,0l5.1-5.1c4.2,2.8,8.9,4.8,14,5.8v7.2c0,1.8,1.4,3.2,3.2,3.2h8.7c1.8,0,3.2-1.4,3.2-3.2v-7.2  c5.1-1,9.8-3,14-5.8l5.1,5.1c1.2,1.2,3.3,1.2,4.5,0l6.1-6.1c1.2-1.2,1.2-3.3,0-4.5l-5.1-5.1c2.8-4.2,4.8-8.9,5.8-14h7.2  C96.9,57.5,98.3,56.1,98.3,54.3z M52.1,57.1l-6.3,6.2l-6.2-6.3l-6-6l6.3-6.2l6,6l14.3-14.3l6.2,6.3L52.1,57.1z"/><text x="0" y="115" fill="#000000" font-size="5px" font-weight="bold" font-family="'Helvetica Neue', Helvetica, Arial-Unicode, Arial, Sans-serif">Created by Gregor Črešnar</text><text x="0" y="120" fill="#000000" font-size="5px" font-weight="bold" font-family="'Helvetica Neue', Helvetica, Arial-Unicode, Arial, Sans-serif">from the Noun Project</text></svg>