<svg xmlns:dc="http://purl.org/dc/elements/1.1/" xmlns:cc="http://creativecommons.org/ns#" xmlns:rdf="http://www.w3.org/1999/02/22-rdf-syntax-ns#" xmlns:svg="http://www.w3.org/2000/svg" xmlns="http://www.w3.org/2000/svg" xmlns:sodipodi="http://sodipodi.sourceforge.net/DTD/sodipodi-0.dtd" xmlns:inkscape="http://www.inkscape.org/namespaces/inkscape" version="1.1" x="0px" y="0px" viewBox="0 0 100 125"><g transform="translate(0,-952.36218)"><g transform="matrix(0.22212388,0,0,0.22212388,40.163089,783.83876)"><g transform="matrix(0.22212388,0,0,0.22212388,-115.56143,638.49574)"><path style="" d="M 24.0625 10 C 16.276838 10 10 16.276836 10 24.0625 L 10 75.9375 C 10 83.723167 16.276838 90 24.0625 90 L 75.9375 90 C 83.723163 90 90 83.723167 90 75.9375 L 90 24.0625 C 90 16.276836 83.723163 10 75.9375 10 L 24.0625 10 z M 40.03125 34.625 C 40.089179 34.613415 40.160821 34.613415 40.21875 34.625 L 59.90625 34.625 L 59.9375 34.625 C 59.972258 34.625 60.008067 34.644665 60.03125 34.65625 C 60.077593 34.667835 60.141157 34.69558 60.1875 34.71875 L 60.1875 34.75 L 60.21875 34.75 L 60.25 34.78125 L 70.09375 44.625 C 70.128509 44.64817 70.133066 44.664321 70.15625 44.6875 L 70.1875 44.71875 C 70.21067 44.741925 70.238425 44.758071 70.25 44.78125 C 70.261609 44.79284 70.28125 44.832175 70.28125 44.84375 C 70.292855 44.855335 70.269675 44.863425 70.28125 44.875 C 70.28125 44.886585 70.3125 44.925925 70.3125 44.9375 C 70.3125 44.949075 70.300925 44.957175 70.3125 44.96875 L 70.3125 45.03125 L 70.3125 45.0625 L 70.3125 45.09375 C 70.300925 45.105335 70.3125 45.113425 70.3125 45.125 C 70.3125 45.148165 70.28125 45.175925 70.28125 45.1875 C 70.28125 45.199105 70.28125 45.21875 70.28125 45.21875 C 70.269665 45.265099 70.26158 45.289321 70.25 45.3125 L 70.21875 45.3125 C 70.19558 45.33567 70.179434 45.363425 70.15625 45.375 C 70.15625 45.386575 70.167825 45.394675 70.15625 45.40625 L 60.34375 55.3125 L 50.4375 65.15625 C 50.425925 65.167835 50.386575 65.195566 50.375 65.21875 C 50.328657 65.265094 50.296343 65.289321 50.25 65.3125 C 50.238412 65.324109 50.199075 65.332175 50.1875 65.34375 C 50.175925 65.34375 50.167825 65.34375 50.15625 65.34375 C 50.121492 65.355359 50.097258 65.375 50.0625 65.375 L 50 65.375 L 49.96875 65.375 L 49.9375 65.375 L 49.90625 65.375 C 49.790392 65.35183 49.663262 65.291773 49.59375 65.1875 L 49.5625 65.125 L 47.1875 62.78125 L 39.78125 55.34375 L 39.75 55.3125 L 32.0625 47.625 L 29.90625 45.46875 C 29.871493 45.44558 29.847257 45.409759 29.8125 45.375 C 29.800912 45.36343 29.792835 45.324075 29.78125 45.3125 L 29.75 45.28125 C 29.75 45.25808 29.71875 45.273184 29.71875 45.25 C 29.707165 45.238425 29.71875 45.199075 29.71875 45.1875 C 29.71875 45.175915 29.6875 45.167825 29.6875 45.15625 C 29.6875 45.144675 29.6875 45.105325 29.6875 45.09375 L 29.6875 45 C 29.6875 44.965241 29.675915 44.941004 29.6875 44.90625 C 29.699088 44.894675 29.707165 44.886575 29.71875 44.875 C 29.71875 44.85183 29.738415 44.835684 29.75 44.8125 C 29.75 44.800895 29.75 44.78125 29.75 44.78125 L 29.78125 44.75 C 29.792835 44.738415 29.800915 44.710684 29.8125 44.6875 C 29.824084 44.6875 29.832165 44.667825 29.84375 44.65625 L 29.90625 44.625 L 39.75 34.78125 L 39.75 34.75 C 39.8311 34.668901 39.926977 34.636585 40.03125 34.625 z M 41.28125 35.59375 L 45.0625 39.375 L 48.8125 35.59375 L 41.28125 35.59375 z M 51.1875 35.59375 L 54.9375 39.375 L 58.71875 35.59375 L 51.1875 35.59375 z M 40.09375 35.8125 L 31.375 44.5625 L 39.875 44.5625 L 44.375 40.0625 L 40.125 35.8125 L 40.09375 35.8125 z M 50 35.8125 L 45.75 40.0625 L 50 44.34375 L 54.25 40.09375 L 50 35.8125 z M 59.90625 35.8125 L 55.625 40.09375 L 60.125 44.5625 L 68.625 44.5625 L 59.90625 35.8125 z M 45.0625 40.75 L 41.25 44.5625 L 48.84375 44.5625 L 45.0625 40.75 z M 54.9375 40.78125 L 51.15625 44.5625 L 58.75 44.5625 L 54.9375 40.78125 z M 31.375 45.53125 L 40.125 54.25 L 42.8125 51.5625 L 39.78125 45.53125 L 31.375 45.53125 z M 40.875 45.53125 L 43.53125 50.84375 L 48.84375 45.53125 L 40.875 45.53125 z M 51.15625 45.53125 L 56.46875 50.84375 L 59.125 45.53125 L 51.15625 45.53125 z M 60.21875 45.53125 L 57.1875 51.5625 L 59.90625 54.28125 L 68.625 45.53125 L 60.21875 45.53125 z M 50 45.75 L 44 51.78125 L 50 63.78125 L 56 51.78125 L 50 45.75 z M 43.25 52.5 L 40.8125 54.96875 L 48.1875 62.375 L 43.25 52.5 z M 56.75 52.5 L 51.8125 62.375 L 59.21875 54.96875 L 56.75 52.5 z " transform="matrix(20.267935,0,0,20.267935,-293.7662,541.11877)" fill="#000000" fill-opacity="1" fill-rule="evenodd" stroke="none"/></g></g></g><text x="0" y="115" fill="#000000" font-size="5px" font-weight="bold" font-family="'Helvetica Neue', Helvetica, Arial-Unicode, Arial, Sans-serif">Created by mantisshrimpdesign</text><text x="0" y="120" fill="#000000" font-size="5px" font-weight="bold" font-family="'Helvetica Neue', Helvetica, Arial-Unicode, Arial, Sans-serif">from the Noun Project</text></svg>